<?xml version="1.0" encoding="utf-8"?>
<!-- Generator: Adobe Illustrator 16.0.0, SVG Export Plug-In . SVG Version: 6.00 Build 0)  -->
<!DOCTYPE svg PUBLIC "-//W3C//DTD SVG 1.1//EN" "http://www.w3.org/Graphics/SVG/1.1/DTD/svg11.dtd">
<svg version="1.1" id="Layer_1" xmlns="http://www.w3.org/2000/svg" xmlns:xlink="http://www.w3.org/1999/xlink" x="0px" y="0px"
	 width="96.378px" height="96.378px" viewBox="0 0 96.378 96.378" enable-background="new 0 0 96.378 96.378" xml:space="preserve">
<g>
	<g>
		<g>
			<path fill="#AAABAB" d="M48.199,96.224C21.623,96.224,0,74.601,0,48.022S21.623-0.179,48.199-0.179
				c26.58,0,48.203,21.623,48.203,48.202S74.779,96.224,48.199,96.224z M48.199,6.536c-22.875,0-41.485,18.611-41.485,41.487
				s18.611,41.487,41.485,41.487c22.876,0,41.488-18.611,41.488-41.487S71.076,6.536,48.199,6.536z"/>
		</g>
	</g>
</g>
<g>
	<path fill="#969696" d="M19.9,64.07v-5.487h4.928V37.074H19.9v-5.488h18.356v5.488h-4.975v21.509h4.975v5.487H19.9z"/>
	<path fill="#969696" d="M45.969,64.07v-5.487h4.926V37.074h-4.926v-5.488h15.389c3.238,0,5.847,0.199,7.823,0.595
		c1.978,0.397,3.869,1.277,5.676,2.639s3.253,3.188,4.343,5.477c1.09,2.288,1.636,4.827,1.636,7.613
		c0,2.257-0.382,4.409-1.145,6.456c-0.764,2.048-1.708,3.699-2.838,4.951c-1.128,1.255-2.479,2.251-4.052,2.989
		c-1.572,0.74-3.017,1.219-4.332,1.437c-1.315,0.219-3.35,0.327-6.107,0.327H45.969z M59.326,58.583h2.032
		c2.461,0,4.41-0.319,5.851-0.958c1.439-0.638,2.595-1.764,3.468-3.374c0.873-1.612,1.307-3.717,1.307-6.317
		c0-2.476-0.438-4.578-1.317-6.305c-0.881-1.728-2.072-2.919-3.573-3.573c-1.503-0.654-3.415-0.981-5.734-0.981h-2.032V58.583z"/>
</g>
</svg>
